solid sphere
	facet normal -0.194456 0.977599 0.0805465
		outer loop
			vertex 0 2 0
			vertex -0.765367 1.84776 0
			vertex -0.541196 1.84776 0.541196
		endloop
	endfacet
	facet normal -0.0805465 0.977599 0.194456
		outer loop
			vertex 0 2 0
			vertex -0.541196 1.84776 0.541196
			vertex -4.68652e-17 1.84776 0.765367
		endloop
	endfacet
	facet normal 0.0805465 0.977599 0.194456
		outer loop
			vertex 0 2 0
			vertex -4.68652e-17 1.84776 0.765367
			vertex 0.541196 1.84776 0.541196
		endloop
	endfacet
	facet normal 0.194456 0.977599 0.0805465
		outer loop
			vertex 0 2 0
			vertex 0.541196 1.84776 0.541196
			vertex 0.765367 1.84776 9.37304e-17
		endloop
	endfacet
	facet normal 0.194456 0.977599 -0.0805465
		outer loop
			vertex 0 2 0
			vertex 0.765367 1.84776 9.37304e-17
			vertex 0.541196 1.84776 -0.541196
		endloop
	endfacet
	facet normal 0.0805465 0.977599 -0.194456
		outer loop
			vertex 0 2 0
			vertex 0.541196 1.84776 -0.541196
			vertex 1.40596e-16 1.84776 -0.765367
		endloop
	endfacet
	facet normal -0.0805465 0.977599 -0.194456
		outer loop
			vertex 0 2 0
			vertex 1.40596e-16 1.84776 -0.765367
			vertex -0.541196 1.84776 -0.541196
		endloop
	endfacet
	facet normal -0.707107 0 0.707107
		outer loop
			vertex 0 2 0
			vertex -0.541196 1.84776 -0.541196
			vertex 0 0 0
		endloop
	endfacet
	facet normal 0.194456 -0.977599 -0.0805465
		outer loop
			vertex 0 2 0
			vertex -0.541196 1.84776 0.541196
			vertex -0.765367 1.84776 0
		endloop
	endfacet
	facet normal -0.541419 0.810291 0.224263
		outer loop
			vertex -0.765367 1.84776 0
			vertex -1.41421 1.41421 0
			vertex -0.541196 1.84776 0.541196
		endloop
	endfacet
	facet normal -0.541419 0.810291 0.224263
		outer loop
			vertex -0.541196 1.84776 0.541196
			vertex -1.41421 1.41421 0
			vertex -1 1.41421 1
		endloop
	endfacet
	facet normal -0.224263 0.810291 0.541419
		outer loop
			vertex -0.541196 1.84776 0.541196
			vertex -1 1.41421 1
			vertex -4.68652e-17 1.84776 0.765367
		endloop
	endfacet
	facet normal -0.224263 0.810291 0.541419
		outer loop
			vertex -4.68652e-17 1.84776 0.765367
			vertex -1 1.41421 1
			vertex -8.65956e-17 1.41421 1.41421
		endloop
	endfacet
	facet normal 0.224263 0.810291 0.541419
		outer loop
			vertex -4.68652e-17 1.84776 0.765367
			vertex -8.65956e-17 1.41421 1.41421
			vertex 0.541196 1.84776 0.541196
		endloop
	endfacet
	facet normal 0.224263 0.810291 0.541419
		outer loop
			vertex 0.541196 1.84776 0.541196
			vertex -8.65956e-17 1.41421 1.41421
			vertex 1 1.41421 1
		endloop
	endfacet
	facet normal 0.541419 0.810291 0.224263
		outer loop
			vertex 0.541196 1.84776 0.541196
			vertex 1 1.41421 1
			vertex 0.765367 1.84776 9.37304e-17
		endloop
	endfacet
	facet normal 0.541419 0.810291 0.224263
		outer loop
			vertex 0.765367 1.84776 9.37304e-17
			vertex 1 1.41421 1
			vertex 1.41421 1.41421 1.73191e-16
		endloop
	endfacet
	facet normal 0.541419 0.810291 -0.224263
		outer loop
			vertex 0.765367 1.84776 9.37304e-17
			vertex 1.41421 1.41421 1.73191e-16
			vertex 0.541196 1.84776 -0.541196
		endloop
	endfacet
	facet normal 0.541419 0.810291 -0.224263
		outer loop
			vertex 0.541196 1.84776 -0.541196
			vertex 1.41421 1.41421 1.73191e-16
			vertex 1 1.41421 -1
		endloop
	endfacet
	facet normal 0.224263 0.810291 -0.541419
		outer loop
			vertex 0.541196 1.84776 -0.541196
			vertex 1 1.41421 -1
			vertex 1.40596e-16 1.84776 -0.765367
		endloop
	endfacet
	facet normal 0.224263 0.810291 -0.541419
		outer loop
			vertex 1.40596e-16 1.84776 -0.765367
			vertex 1 1.41421 -1
			vertex 2.59787e-16 1.41421 -1.41421
		endloop
	endfacet
	facet normal -0.224263 0.810291 -0.541419
		outer loop
			vertex 1.40596e-16 1.84776 -0.765367
			vertex 2.59787e-16 1.41421 -1.41421
			vertex -0.541196 1.84776 -0.541196
		endloop
	endfacet
	facet normal -0.224263 0.810291 -0.541419
		outer loop
			vertex -0.541196 1.84776 -0.541196
			vertex 2.59787e-16 1.41421 -1.41421
			vertex -1 1.41421 -1
		endloop
	endfacet
	facet normal -0.786151 0.525289 0.325634
		outer loop
			vertex -1.41421 1.41421 0
			vertex -1.84776 0.765367 0
			vertex -1 1.41421 1
		endloop
	endfacet
	facet normal -0.786151 0.525289 0.325634
		outer loop
			vertex -1 1.41421 1
			vertex -1.84776 0.765367 0
			vertex -1.30656 0.765367 1.30656
		endloop
	endfacet
	facet normal -0.325634 0.525289 0.786151
		outer loop
			vertex -1 1.41421 1
			vertex -1.30656 0.765367 1.30656
			vertex -8.65956e-17 1.41421 1.41421
		endloop
	endfacet
	facet normal -0.325634 0.525289 0.786151
		outer loop
			vertex -8.65956e-17 1.41421 1.41421
			vertex -1.30656 0.765367 1.30656
			vertex -1.13143e-16 0.765367 1.84776
		endloop
	endfacet
	facet normal 0.325634 0.525289 0.786151
		outer loop
			vertex -8.65956e-17 1.41421 1.41421
			vertex -1.13143e-16 0.765367 1.84776
			vertex 1 1.41421 1
		endloop
	endfacet
	facet normal 0.325634 0.525289 0.786151
		outer loop
			vertex 1 1.41421 1
			vertex -1.13143e-16 0.765367 1.84776
			vertex 1.30656 0.765367 1.30656
		endloop
	endfacet
	facet normal 0.786151 0.525289 0.325634
		outer loop
			vertex 1 1.41421 1
			vertex 1.30656 0.765367 1.30656
			vertex 1.41421 1.41421 1.73191e-16
		endloop
	endfacet
	facet normal 0.786151 0.525289 0.325634
		outer loop
			vertex 1.41421 1.41421 1.73191e-16
			vertex 1.30656 0.765367 1.30656
			vertex 1.84776 0.765367 2.26285e-16
		endloop
	endfacet
	facet normal 0.786151 0.525289 -0.325634
		outer loop
			vertex 1.41421 1.41421 1.73191e-16
			vertex 1.84776 0.765367 2.26285e-16
			vertex 1 1.41421 -1
		endloop
	endfacet
	facet normal 0.786151 0.525289 -0.325634
		outer loop
			vertex 1 1.41421 -1
			vertex 1.84776 0.765367 2.26285e-16
			vertex 1.30656 0.765367 -1.30656
		endloop
	endfacet
	facet normal 0.325634 0.525289 -0.786151
		outer loop
			vertex 1 1.41421 -1
			vertex 1.30656 0.765367 -1.30656
			vertex 2.59787e-16 1.41421 -1.41421
		endloop
	endfacet
	facet normal 0.325634 0.525289 -0.786151
		outer loop
			vertex 2.59787e-16 1.41421 -1.41421
			vertex 1.30656 0.765367 -1.30656
			vertex 3.39428e-16 0.765367 -1.84776
		endloop
	endfacet
	facet normal -0.325634 0.525289 -0.786151
		outer loop
			vertex 2.59787e-16 1.41421 -1.41421
			vertex 3.39428e-16 0.765367 -1.84776
			vertex -1 1.41421 -1
		endloop
	endfacet
	facet normal -0.325634 0.525289 -0.786151
		outer loop
			vertex -1 1.41421 -1
			vertex 3.39428e-16 0.765367 -1.84776
			vertex -1.30656 0.765367 -1.30656
		endloop
	endfacet
	facet normal -0.908663 0.180744 0.376381
		outer loop
			vertex -1.84776 0.765367 0
			vertex -2 1.22465e-16 0
			vertex -1.30656 0.765367 1.30656
		endloop
	endfacet
	facet normal -0.908663 0.180744 0.376381
		outer loop
			vertex -1.30656 0.765367 1.30656
			vertex -2 1.22465e-16 0
			vertex -1.41421 1.22465e-16 1.41421
		endloop
	endfacet
	facet normal -0.376381 0.180744 0.908663
		outer loop
			vertex -1.30656 0.765367 1.30656
			vertex -1.41421 1.22465e-16 1.41421
			vertex -1.13143e-16 0.765367 1.84776
		endloop
	endfacet
	facet normal -0.376381 0.180744 0.908663
		outer loop
			vertex -1.13143e-16 0.765367 1.84776
			vertex -1.41421 1.22465e-16 1.41421
			vertex -1.22465e-16 1.22465e-16 2
		endloop
	endfacet
	facet normal 0.376381 0.180744 0.908663
		outer loop
			vertex -1.13143e-16 0.765367 1.84776
			vertex -1.22465e-16 1.22465e-16 2
			vertex 1.30656 0.765367 1.30656
		endloop
	endfacet
	facet normal 0.376381 0.180744 0.908663
		outer loop
			vertex 1.30656 0.765367 1.30656
			vertex -1.22465e-16 1.22465e-16 2
			vertex 1.41421 1.22465e-16 1.41421
		endloop
	endfacet
	facet normal 0.908663 0.180744 0.376381
		outer loop
			vertex 1.30656 0.765367 1.30656
			vertex 1.41421 1.22465e-16 1.41421
			vertex 1.84776 0.765367 2.26285e-16
		endloop
	endfacet
	facet normal 0.908663 0.180744 0.376381
		outer loop
			vertex 1.84776 0.765367 2.26285e-16
			vertex 1.41421 1.22465e-16 1.41421
			vertex 2 1.22465e-16 2.44929e-16
		endloop
	endfacet
	facet normal 0.908663 0.180744 -0.376381
		outer loop
			vertex 1.84776 0.765367 2.26285e-16
			vertex 2 1.22465e-16 2.44929e-16
			vertex 1.30656 0.765367 -1.30656
		endloop
	endfacet
	facet normal 0.908663 0.180744 -0.376381
		outer loop
			vertex 1.30656 0.765367 -1.30656
			vertex 2 1.22465e-16 2.44929e-16
			vertex 1.41421 1.22465e-16 -1.41421
		endloop
	endfacet
	facet normal 0.376381 0.180744 -0.908663
		outer loop
			vertex 1.30656 0.765367 -1.30656
			vertex 1.41421 1.22465e-16 -1.41421
			vertex 3.39428e-16 0.765367 -1.84776
		endloop
	endfacet
	facet normal 0.376381 0.180744 -0.908663
		outer loop
			vertex 3.39428e-16 0.765367 -1.84776
			vertex 1.41421 1.22465e-16 -1.41421
			vertex 3.67394e-16 1.22465e-16 -2
		endloop
	endfacet
	facet normal -0.376381 0.180744 -0.908663
		outer loop
			vertex 3.39428e-16 0.765367 -1.84776
			vertex 3.67394e-16 1.22465e-16 -2
			vertex -1.30656 0.765367 -1.30656
		endloop
	endfacet
	facet normal -0.376381 0.180744 -0.908663
		outer loop
			vertex -1.30656 0.765367 -1.30656
			vertex 3.67394e-16 1.22465e-16 -2
			vertex -1.41421 1.22465e-16 -1.41421
		endloop
	endfacet
	facet normal -0.908663 -0.180744 0.376381
		outer loop
			vertex -2 1.22465e-16 0
			vertex -1.84776 -0.765367 0
			vertex -1.41421 1.22465e-16 1.41421
		endloop
	endfacet
	facet normal -0.908663 -0.180744 0.376381
		outer loop
			vertex -1.41421 1.22465e-16 1.41421
			vertex -1.84776 -0.765367 0
			vertex -1.30656 -0.765367 1.30656
		endloop
	endfacet
	facet normal -0.376381 -0.180744 0.908663
		outer loop
			vertex -1.41421 1.22465e-16 1.41421
			vertex -1.30656 -0.765367 1.30656
			vertex -1.22465e-16 1.22465e-16 2
		endloop
	endfacet
	facet normal -0.376381 -0.180744 0.908663
		outer loop
			vertex -1.22465e-16 1.22465e-16 2
			vertex -1.30656 -0.765367 1.30656
			vertex -1.13143e-16 -0.765367 1.84776
		endloop
	endfacet
	facet normal 0.376381 -0.180744 0.908663
		outer loop
			vertex -1.22465e-16 1.22465e-16 2
			vertex -1.13143e-16 -0.765367 1.84776
			vertex 1.41421 1.22465e-16 1.41421
		endloop
	endfacet
	facet normal 0.376381 -0.180744 0.908663
		outer loop
			vertex 1.41421 1.22465e-16 1.41421
			vertex -1.13143e-16 -0.765367 1.84776
			vertex 1.30656 -0.765367 1.30656
		endloop
	endfacet
	facet normal 0.908663 -0.180744 0.376381
		outer loop
			vertex 1.41421 1.22465e-16 1.41421
			vertex 1.30656 -0.765367 1.30656
			vertex 2 1.22465e-16 2.44929e-16
		endloop
	endfacet
	facet normal 0.908663 -0.180744 0.376381
		outer loop
			vertex 2 1.22465e-16 2.44929e-16
			vertex 1.30656 -0.765367 1.30656
			vertex 1.84776 -0.765367 2.26285e-16
		endloop
	endfacet
	facet normal 0.908663 -0.180744 -0.376381
		outer loop
			vertex 2 1.22465e-16 2.44929e-16
			vertex 1.84776 -0.765367 2.26285e-16
			vertex 1.41421 1.22465e-16 -1.41421
		endloop
	endfacet
	facet normal 0.908663 -0.180744 -0.376381
		outer loop
			vertex 1.41421 1.22465e-16 -1.41421
			vertex 1.84776 -0.765367 2.26285e-16
			vertex 1.30656 -0.765367 -1.30656
		endloop
	endfacet
	facet normal 0.376381 -0.180744 -0.908663
		outer loop
			vertex 1.41421 1.22465e-16 -1.41421
			vertex 1.30656 -0.765367 -1.30656
			vertex 3.67394e-16 1.22465e-16 -2
		endloop
	endfacet
	facet normal 0.376381 -0.180744 -0.908663
		outer loop
			vertex 3.67394e-16 1.22465e-16 -2
			vertex 1.30656 -0.765367 -1.30656
			vertex 3.39428e-16 -0.765367 -1.84776
		endloop
	endfacet
	facet normal -0.376381 -0.180744 -0.908663
		outer loop
			vertex 3.67394e-16 1.22465e-16 -2
			vertex 3.39428e-16 -0.765367 -1.84776
			vertex -1.41421 1.22465e-16 -1.41421
		endloop
	endfacet
	facet normal -0.376381 -0.180744 -0.908663
		outer loop
			vertex -1.41421 1.22465e-16 -1.41421
			vertex 3.39428e-16 -0.765367 -1.84776
			vertex -1.30656 -0.765367 -1.30656
		endloop
	endfacet
	facet normal -0.786151 -0.525289 0.325634
		outer loop
			vertex -1.84776 -0.765367 0
			vertex -1.41421 -1.41421 0
			vertex -1.30656 -0.765367 1.30656
		endloop
	endfacet
	facet normal -0.786151 -0.525289 0.325634
		outer loop
			vertex -1.30656 -0.765367 1.30656
			vertex -1.41421 -1.41421 0
			vertex -1 -1.41421 1
		endloop
	endfacet
	facet normal -0.325634 -0.525289 0.786151
		outer loop
			vertex -1.30656 -0.765367 1.30656
			vertex -1 -1.41421 1
			vertex -1.13143e-16 -0.765367 1.84776
		endloop
	endfacet
	facet normal -0.325634 -0.525289 0.786151
		outer loop
			vertex -1.13143e-16 -0.765367 1.84776
			vertex -1 -1.41421 1
			vertex -8.65956e-17 -1.41421 1.41421
		endloop
	endfacet
	facet normal 0.325634 -0.525289 0.786151
		outer loop
			vertex -1.13143e-16 -0.765367 1.84776
			vertex -8.65956e-17 -1.41421 1.41421
			vertex 1.30656 -0.765367 1.30656
		endloop
	endfacet
	facet normal 0.325634 -0.525289 0.786151
		outer loop
			vertex 1.30656 -0.765367 1.30656
			vertex -8.65956e-17 -1.41421 1.41421
			vertex 1 -1.41421 1
		endloop
	endfacet
	facet normal 0.786151 -0.525289 0.325634
		outer loop
			vertex 1.30656 -0.765367 1.30656
			vertex 1 -1.41421 1
			vertex 1.84776 -0.765367 2.26285e-16
		endloop
	endfacet
	facet normal 0.786151 -0.525289 0.325634
		outer loop
			vertex 1.84776 -0.765367 2.26285e-16
			vertex 1 -1.41421 1
			vertex 1.41421 -1.41421 1.73191e-16
		endloop
	endfacet
	facet normal 0.786151 -0.525289 -0.325634
		outer loop
			vertex 1.84776 -0.765367 2.26285e-16
			vertex 1.41421 -1.41421 1.73191e-16
			vertex 1.30656 -0.765367 -1.30656
		endloop
	endfacet
	facet normal 0.786151 -0.525289 -0.325634
		outer loop
			vertex 1.30656 -0.765367 -1.30656
			vertex 1.41421 -1.41421 1.73191e-16
			vertex 1 -1.41421 -1
		endloop
	endfacet
	facet normal 0.325634 -0.525289 -0.786151
		outer loop
			vertex 1.30656 -0.765367 -1.30656
			vertex 1 -1.41421 -1
			vertex 3.39428e-16 -0.765367 -1.84776
		endloop
	endfacet
	facet normal 0.325634 -0.525289 -0.786151
		outer loop
			vertex 3.39428e-16 -0.765367 -1.84776
			vertex 1 -1.41421 -1
			vertex 2.59787e-16 -1.41421 -1.41421
		endloop
	endfacet
	facet normal -0.325634 -0.525289 -0.786151
		outer loop
			vertex 3.39428e-16 -0.765367 -1.84776
			vertex 2.59787e-16 -1.41421 -1.41421
			vertex -1.30656 -0.765367 -1.30656
		endloop
	endfacet
	facet normal -0.325634 -0.525289 -0.786151
		outer loop
			vertex -1.30656 -0.765367 -1.30656
			vertex 2.59787e-16 -1.41421 -1.41421
			vertex -1 -1.41421 -1
		endloop
	endfacet
	facet normal -0.541419 -0.810291 0.224263
		outer loop
			vertex -1.41421 -1.41421 0
			vertex -0.765367 -1.84776 0
			vertex -1 -1.41421 1
		endloop
	endfacet
	facet normal -0.541419 -0.810291 0.224263
		outer loop
			vertex -1 -1.41421 1
			vertex -0.765367 -1.84776 0
			vertex -0.541196 -1.84776 0.541196
		endloop
	endfacet
	facet normal -0.224263 -0.810291 0.541419
		outer loop
			vertex -1 -1.41421 1
			vertex -0.541196 -1.84776 0.541196
			vertex -8.65956e-17 -1.41421 1.41421
		endloop
	endfacet
	facet normal -0.224263 -0.810291 0.541419
		outer loop
			vertex -8.65956e-17 -1.41421 1.41421
			vertex -0.541196 -1.84776 0.541196
			vertex -4.68652e-17 -1.84776 0.765367
		endloop
	endfacet
	facet normal 0.224263 -0.810291 0.541419
		outer loop
			vertex -8.65956e-17 -1.41421 1.41421
			vertex -4.68652e-17 -1.84776 0.765367
			vertex 1 -1.41421 1
		endloop
	endfacet
	facet normal 0.224263 -0.810291 0.541419
		outer loop
			vertex 1 -1.41421 1
			vertex -4.68652e-17 -1.84776 0.765367
			vertex 0.541196 -1.84776 0.541196
		endloop
	endfacet
	facet normal 0.541419 -0.810291 0.224263
		outer loop
			vertex 1 -1.41421 1
			vertex 0.541196 -1.84776 0.541196
			vertex 1.41421 -1.41421 1.73191e-16
		endloop
	endfacet
	facet normal 0.541419 -0.810291 0.224263
		outer loop
			vertex 1.41421 -1.41421 1.73191e-16
			vertex 0.541196 -1.84776 0.541196
			vertex 0.765367 -1.84776 9.37304e-17
		endloop
	endfacet
	facet normal 0.541419 -0.810291 -0.224263
		outer loop
			vertex 1.41421 -1.41421 1.73191e-16
			vertex 0.765367 -1.84776 9.37304e-17
			vertex 1 -1.41421 -1
		endloop
	endfacet
	facet normal 0.541419 -0.810291 -0.224263
		outer loop
			vertex 1 -1.41421 -1
			vertex 0.765367 -1.84776 9.37304e-17
			vertex 0.541196 -1.84776 -0.541196
		endloop
	endfacet
	facet normal 0.224263 -0.810291 -0.541419
		outer loop
			vertex 1 -1.41421 -1
			vertex 0.541196 -1.84776 -0.541196
			vertex 2.59787e-16 -1.41421 -1.41421
		endloop
	endfacet
	facet normal 0.224263 -0.810291 -0.541419
		outer loop
			vertex 2.59787e-16 -1.41421 -1.41421
			vertex 0.541196 -1.84776 -0.541196
			vertex 1.40596e-16 -1.84776 -0.765367
		endloop
	endfacet
	facet normal -0.224263 -0.810291 -0.541419
		outer loop
			vertex 2.59787e-16 -1.41421 -1.41421
			vertex 1.40596e-16 -1.84776 -0.765367
			vertex -1 -1.41421 -1
		endloop
	endfacet
	facet normal -0.224263 -0.810291 -0.541419
		outer loop
			vertex -1 -1.41421 -1
			vertex 1.40596e-16 -1.84776 -0.765367
			vertex -0.541196 -1.84776 -0.541196
		endloop
	endfacet
	facet normal -0.541419 0.810291 -0.224263
		outer loop
			vertex -0.541196 1.84776 -0.541196
			vertex -1 1.41421 -1
			vertex -0.765367 1.84776 0
		endloop
	endfacet
	facet normal -0.541419 0.810291 -0.224263
		outer loop
			vertex -0.765367 1.84776 0
			vertex -1 1.41421 -1
			vertex -1.41421 1.41421 0
		endloop
	endfacet
	facet normal -0.786151 0.525289 -0.325634
		outer loop
			vertex -1 1.41421 -1
			vertex -1.30656 0.765367 -1.30656
			vertex -1.41421 1.41421 0
		endloop
	endfacet
	facet normal -0.786151 0.525289 -0.325634
		outer loop
			vertex -1.41421 1.41421 0
			vertex -1.30656 0.765367 -1.30656
			vertex -1.84776 0.765367 0
		endloop
	endfacet
	facet normal -0.908663 0.180744 -0.376381
		outer loop
			vertex -1.30656 0.765367 -1.30656
			vertex -1.41421 1.22465e-16 -1.41421
			vertex -1.84776 0.765367 0
		endloop
	endfacet
	facet normal -0.908663 0.180744 -0.376381
		outer loop
			vertex -1.84776 0.765367 0
			vertex -1.41421 1.22465e-16 -1.41421
			vertex -2 1.22465e-16 0
		endloop
	endfacet
	facet normal -0.908663 -0.180744 -0.376381
		outer loop
			vertex -1.41421 1.22465e-16 -1.41421
			vertex -1.30656 -0.765367 -1.30656
			vertex -2 1.22465e-16 0
		endloop
	endfacet
	facet normal -0.908663 -0.180744 -0.376381
		outer loop
			vertex -2 1.22465e-16 0
			vertex -1.30656 -0.765367 -1.30656
			vertex -1.84776 -0.765367 0
		endloop
	endfacet
	facet normal -0.786151 -0.525289 -0.325634
		outer loop
			vertex -1.30656 -0.765367 -1.30656
			vertex -1 -1.41421 -1
			vertex -1.84776 -0.765367 0
		endloop
	endfacet
	facet normal -0.786151 -0.525289 -0.325634
		outer loop
			vertex -1.84776 -0.765367 0
			vertex -1 -1.41421 -1
			vertex -1.41421 -1.41421 0
		endloop
	endfacet
	facet normal -0.541419 -0.810291 -0.224263
		outer loop
			vertex -1 -1.41421 -1
			vertex -0.541196 -1.84776 -0.541196
			vertex -1.41421 -1.41421 0
		endloop
	endfacet
	facet normal -0.541419 -0.810291 -0.224263
		outer loop
			vertex -1.41421 -1.41421 0
			vertex -0.541196 -1.84776 -0.541196
			vertex -0.765367 -1.84776 0
		endloop
	endfacet
	facet normal -0.194456 -0.977599 0.0805465
		outer loop
			vertex 0 -2 0
			vertex -0.541196 -1.84776 0.541196
			vertex -0.765367 -1.84776 0
		endloop
	endfacet
	facet normal -0.0805465 -0.977599 0.194456
		outer loop
			vertex 0 -2 0
			vertex -4.68652e-17 -1.84776 0.765367
			vertex -0.541196 -1.84776 0.541196
		endloop
	endfacet
	facet normal 0.0805465 -0.977599 0.194456
		outer loop
			vertex 0 -2 0
			vertex 0.541196 -1.84776 0.541196
			vertex -4.68652e-17 -1.84776 0.765367
		endloop
	endfacet
	facet normal 0.194456 -0.977599 0.0805465
		outer loop
			vertex 0 -2 0
			vertex 0.765367 -1.84776 9.37304e-17
			vertex 0.541196 -1.84776 0.541196
		endloop
	endfacet
	facet normal 0.194456 -0.977599 -0.0805465
		outer loop
			vertex 0 -2 0
			vertex 0.541196 -1.84776 -0.541196
			vertex 0.765367 -1.84776 9.37304e-17
		endloop
	endfacet
	facet normal 0.0805465 -0.977599 -0.194456
		outer loop
			vertex 0 -2 0
			vertex 1.40596e-16 -1.84776 -0.765367
			vertex 0.541196 -1.84776 -0.541196
		endloop
	endfacet
	facet normal -0.0805465 -0.977599 -0.194456
		outer loop
			vertex 0 -2 0
			vertex -0.541196 -1.84776 -0.541196
			vertex 1.40596e-16 -1.84776 -0.765367
		endloop
	endfacet
	facet normal -0.194456 -0.977599 -0.0805465
		outer loop
			vertex 0 -2 0
			vertex -0.765367 -1.84776 0
			vertex -0.541196 -1.84776 -0.541196
		endloop
	endfacet
endsolid sphere
